<?xml version="1.0" encoding="UTF-8"?>
<svg id="Layer_2" data-name="Layer 2" xmlns="http://www.w3.org/2000/svg" viewBox="0 0 1659.74 715.63">
  <defs>
    <style>
      .cls-1 {
        fill: #231f20;
      }
    </style>
  </defs>
  <g id="Layer_1-2" data-name="Layer 1">
    <g>
      <path class="cls-1" d="M317.82,9.33c7.57,.15,16.24-2.92,22-5.69,4.02-1.95,6.72-3.46,6.35-3.46-5.22-.13-13.83-.19-16.97-.19-13.77,0-20.99,7.86-20.99,8.42-.19,.41,1.76,.66,4.78,.76,1.29,.16,2.89,.16,4.84,.16"/>
      <path class="cls-1" d="M169.5,128.83c2.7,4.62,5.18,11,8.51,14.89,4.81,5.85,14.58,15.68,28.41,13.32,5.97-.97,6.06-2.83,6.06-2.83,7.04,6.85,18.01,6.6,18.01,6.6-1.26-4.37-6.16-12.82-6.85-18.1-.69-5.75,.94-11.12,.94-11.12,2.04-6.47,5.84-14.55,10.09-18.67,3.68-3.77,13.35-7.89,20.96-2.7,6.16,4.4,13.39,18.54,7.38,38.68-.38,1.42-7.07,15.81-14.2,17.91,0,0-.69,.25-2.04,.25-4.81,0-13.86-5.12-13.86-5.12,0,0-.25,1.32,.97,6.63,.79,2.86,2.04,6.13,2.83,8.74,0,0-1.89,3.08-2.83,4.87-1.63,2.01-3.39,8.95,.41,11.85,0,0,16.06,10.84,31.49,11.66,10.68,.6,14.71-6.54,14.71-6.54,7.83-10.75,13.83-19.89,22.03-27.43,22.69-20.74,54.42-26.21,54.42-26.21,2.1-.22,36.83-9.99,96.06,37.17-16.97,1.2-37.11,5.37-52.41,8.04-43.71,7.86-71.83,48.77-79.85,65.55-21.3,43.71,22.09,58.7,22.09,58.7,.32-.41,41.38-3.58,61.18-46.91,0,0,7.29-19.45,26.43-13.2,12.76,4.15,123.96,42.89,149.01,49.43,0,0,74.54,19.3,102.72-14.8,44.65,14.71,86.73,21.75,196.9,7.6,19.3-2.61,34.25-1.89,34.25-1.89,25.8,1.89,49.33,19.17,56.28,30.57,29.1,46.1,65.8,137.92,193.57,126.86l57.82-5.22c35.2-2.08,63.76-3.65,93.01,11.75,12.6,6.6,19.7,8.99,41.07,29.41,29.41,27.97,56.53,58.13,92.57,41.76,12.79-5.91,27.15-28.62,27.15-28.62-1.51-10.27-5.91-20.46-17.5-28.91,32.65,7.64,106.37,12.63,134.96-37.08,7.35-11.63,8.14-21.87,5.31-28.16-7.86-17.31-29.48-11.72-29.48-11.72-10.24,2.23-21.77,13.86-39.09,19.11-37.14,10.84-67.06-1.82-67.06-1.82-57.29-24.86-241.67-129.81-335.44-175.85,0,0-108.82-50.34-266.85-112.68,0,0-310.55-131.91-517.82-121.23,0,0-110.48,3.02-145.24,51.47,0,0-5.72,6.66-2.58,14.05,0,0,.82,2.04-.66,3.39,0,0-18.48,16.62-28.09,31.58-3.3,5.12-6.44,13.89-.1,20.49,0,0,2.99,2.48,4.34,4.46m10.31-16.5c11.06-25.08,31.93-28.62,34.69-29.13,2.95-.25,12.51-1.7,12.51-1.7,26.58-4.52,39.28-32.18,39.28-32.18-17.94-.25-26.74,1.04-26.74,1.04-17.56,3.11-23.66,23.85-23.66,23.66-14.83,3.58-14.58-9.4-11.91-13.2,2.32-3.64,11.09-18.95,68.6-32.24,0,0,28.28-8.49,88.9-5.78l-2.58,4.49c-5.31,10.21-26.55,31.05-61.84,23.35,0,0,.44,15.59,38.49,20.99,0,0,34.57,6.19,92.86,52.88,0,0-27.9-55.27-75.26-69.57,0,0-5.94-1.07-3.08-4.93,0,0,29.29-26.96,66.96-28.12,0,0,127.58-12.32,198.37,84.91,0,0-21.34-41.26-37.52-59.2,0,0,74.03,20.9,188.1,60.4,0,0,77.68,27.27,127.3,46.88,67.24,26.27,235.11,91.47,342.42,149.8,19.01,10.31,212.77,110.89,212.77,110.89,53.61,24.07,90.81,9.65,90.81,9.65,12.07-4.68,33.81-21.59,43.52-12.01,4.87,4.96,5.59,11.53,3.3,18.04-2.92,9.52-16.72,22.37-33.4,29.98-17.88,7.73-54.52,9.8-75.73,6.38-.06,0-41.26-4.21-77.17-41.7-11.5-11.78-25.45-25.23-38.34-38.55-5.69-5.94-19.73-19.83-42.96-22.94-24.13-3.33-83.4-4.87-105.49-12.19-14.93-5.03-32.87-15.02-56.63-50.15-11.53-16.94-19.7-21.49-35.35-31.42,0,0,12,9.59,18.82,21.43,9.71,17.47,14.89,30.17,20.18,39.34,5.25,9.4,11.28,17.53,20.43,24.86,11.19,9.17,18.32,10.75,30.51,12.79,11.75,1.92,51.35,1.6,85.25,1.07,33.4-.6,48.33,10.25,59.3,19.45,10.15,8.52,27.53,32.99,38.3,43.56,12.66,12.57,22.03,25.67,47.39,38.37,8.67,4.37,23.03,15.15,22.31,25.67-11.37,11.18-25.42,14.3-59.14,5.31,2.23,2.42,20.05,20.83,50.25,12.1-9.21,7.57-18.2,10.75-27.5,10.25-31.61-1.7-62.63-40.6-79.94-54.83-13.33-10.94-14.83-13.64-37.24-29.22-34.06-23.41-110.45-16.81-110.45-16.81l-56.28,2.99c-109.32,8.14-155.23-88.39-167.39-108.6-4.12-6.95-7.86-12.48-11.5-17.19-5.62-7.38-35.64-45.88-65.74-58.73,0,0,29.69,25.64,28.06,42.36,0,0-12.41-5.53-45.91-.82-143.82,20.33-192.81-15.49-192.81-15.49,6.57-28.97-13.58-58.32-13.58-58.32,11.16,3.39,81.92,27.4,149.23,13.67,0,0-109.42,.72-186.12-60.21,0,0,47.67,59.55,36.32,98.58,0,0-7.83,41.48-91.13,24.85-8.83-1.76-19.26-4.74-143.79-39.25-29.35-8.64-39.37,5.28-44.72,13.6-.28,12.19-14.8,26.62-22.12,31.11-38.49-6.91-23.16-42.52-23.16-42.52-24.23,34.47,.94,49.84,9.05,50.81-4.68,2.55-9.18,4.05-13.07,5.47,0,0-31.64-18.67-13.92-49.31,24.57-42.77,49.62-56.5,95.46-60.58,20.02-1.95,36.64-3.3,49.37-1.6,33.31,4.46,54.27,23.25,103.88,28.22-105.52-31.2-105.83-92.1-106.15-93.27,0-.15-.1-.15-.1-.15-5.81,20.08-2.67,36.92,2.58,51.41-1.51-.6-24.67-15.62-33.53-21.09-37.9-23.06-67.94-26.99-67.94-26.99-12.44-1.7-18.48-16.81-18.48-16.81-.22-.82-.88-1.57-1.19-2.23-17.44-30.01-35.01-30.32-35.01-30.32,9.96,13.01,10.18,31.89,10.18,31.89,5.12,36.98-36.96,48.42-36.96,48.42-25.76,32.59-24.51,33.28-30.1,34.19-5.75,.79-18.42-5.62-18.42-5.62-2.01-3.02,.91-6.16,.91-6.16,4.9-3.84,8.77-7.61,8.77-7.61,27.28-27.84,30.54-41.35,27.12-59.26-6.79-36.2-32.81-31.87-32.81-31.87-12.19,.63-17.66,11.37-17.66,11.37-4.24,6.69-13.42,27.18-13.42,27.18-5.62,12.16-11.5,14.8-14.39,15.33-1.32,.25-3.55,.13-4.43,.13-8.86-.31-15.37-8.26-15.37-8.26-.44-.41-.91-.82-1.07-1.19-8.04-8.49-2.39-19.77-2.39-19.77m41.89-38.62s1.04-3.39,1.32-4.21c.53-.66,3.61-9.43,11.47-10.25,0,0,4.52-.34,11.6-.34,0,0-3.46,11-17.06,13.42,0,0-5.22,1.38-7.32,1.38"/>
      <path class="cls-1" d="M195.96,687.32c9.83-10.06,14.67-22.69,14.67-43.18v-64.23h-49.21v60.17c0,17.41-3.9,29.35-12.54,37.83-11.31,11.18-30.14,15.81-57.98,15.81H0v17.63H98.73c46.82,0,79.81-6.32,97.22-24.04"/>
      <path class="cls-1" d="M1289.86,683.39l24.19,27.97h55.15l-114.51-131.44h-48.39l-114.51,131.44h28.47l24.23-27.97h145.36Zm-72.87-84.31l58.2,67.21h-116.17l57.98-67.21Z"/>
      <path class="cls-1" d="M455.26,711.36h55.08l-114.54-131.44h-48.46l-114.38,131.44h28.47l24.01-27.87h145.71l24.1,27.87Zm-155.01-44.93l57.94-67.34,58.17,67.34h-116.11Z"/>
      <path class="cls-1" d="M1628.79,655.05c12.47-6.69,18.25-19.42,18.25-32.61,0-17.57-7.82-28.79-22.06-34.97-12.85-5.63-28.63-7.54-59.96-7.54h-152.15v131.44h48.96v-45.56h64.42l73.69,45.56h59.8l-77.08-46.57c18.19-.41,33.81-3.3,46.13-9.74m-166.95-5.78v-52.85h96.75c18.38,0,26.52,1.6,32.18,5.88,5.37,4.05,7.17,10.02,7.17,19.58v2.51c0,8.42-1.89,15.37-8.33,19.77-6.19,4.21-14.74,5.12-30.42,5.12h-97.35Z"/>
      <path class="cls-1" d="M827.12,579.92v65.55c0,16.91,1.76,30.32,10.34,41.35,14.05,18.38,39.66,28.81,110.61,28.81h.88c71.27,0,96.88-10.43,110.73-28.81,8.61-11.03,10.53-24.45,10.53-41.51v-65.39h-49.08v63.63c0,16.53-2.23,27.03-8.58,35.88-10.53,14.93-27.34,20.33-61.87,20.33h-4.21c-32.87,0-51.16-5.41-61.93-20.33-6.28-8.86-8.39-18.85-8.39-35.88v-63.63h-49.02Z"/>
      <path class="cls-1" d="M645.31,597.32h122.52v-17.41h-137.88c-33.4,0-53.36,3.8-71.21,13.73-16.78,9.33-29.98,26.68-29.98,51.66,0,26.55,12.07,46.04,38.62,56.53,15.81,6.38,36.86,9.52,63.41,9.52h142.19v-60.39h-48.96v42.83h-78.27c-25.45,0-40.19-3.71-51.06-12-10.43-7.83-15.84-19.92-15.84-36.26s5.22-27.34,14.77-35.29c11.06-8.8,25.36-12.92,51.69-12.92"/>
    </g>
  </g>
</svg>