<svg fill="none" height="28" viewBox="0 0 240 28" width="240" xmlns="http://www.w3.org/2000/svg" xmlns:xlink="http://www.w3.org/1999/xlink"><linearGradient id="a" gradientUnits="userSpaceOnUse" x1="240" x2="188" y1="23.0053" y2="23.0054"><stop offset="0" stop-color="#416388" stop-opacity="0"/><stop offset="1" stop-color="#416388"/></linearGradient><path d="m8.94262.34124c.197-.105007 1.27448-.157511 3.23258-.157511h4.0684c4.6325.017501 6.9756.087506 7.0293.210015.0716.087507.1074 1.992226.1074 5.711246s-.0626 5.58871-.188 5.71121c-.1075.1225-.594.1838-1.4536.1838-.8089 0-1.3193-.0438-1.5342-.1313-.1612-.0875-.2418-.5425-.2418-1.368v-1.26298c-1.5432.0175-3.8475.02625-6.9099.02625-3.0625 0-5.35487.00875-6.88311.02625l-.94321 1.18428c-.68353.8254-1.1044 1.2717-1.26558 1.3417-.21491.105-.71935.1575-1.50735.1575h-.62085c-1.220805-.0175-1.8327-.0962-1.8327-.2362 0-.175 1.43273-2.0885 4.2952-5.73752 2.86546-3.64901 4.4146-5.536231 4.64742-5.65874zm10.90968 6.02919v-3.34275h-8.7815c-.8447 1.053-1.71627 2.16724-2.61173 3.34275z" fill="#416388"/><path d="m26.3174.131259c.1433-.0875058 4.0236-.131259 11.635-.131259s11.4379.0437532 11.5275.131259c.0895.087507.1343.519205.1343 1.289261 0 .77006-.0448 1.228-.1343 1.31551-.1075.10501-1.77.15751-4.9817.15751h-4.8206v4.23823c0 2.84395-.0627 4.32573-.188 4.44823-.1075.1225-.6477.1838-1.6148.1838s-1.4984-.0438-1.588-.1313c-.0895-.0875-.1343-1.5693-.1343-4.44823v-4.28781h-4.8742c-3.2505 0-4.928-.0525-5.0385-.15751-.0895-.08751-.1343-.52504-.1343-1.31551 0-.790478.0716-1.201757.2149-1.289264z" fill="#416388"/><path d="m52.4169.498758c.0537-.105008.1672-.172096.3373-.198348s.6149-.03792 1.3342-.03792c1.0597 0 1.6328.043754 1.7253.13126.0895.087506.1343 1.55178.1343 4.39573v4.23823h9.859c6.5368 0 9.8589.0525 9.9664.15751.0895.08751.1343.5192.1343 1.28928 0 .77-.0448 1.228-.1343 1.3155-.1075.105-4.3728.1575-12.7961.1575-6.8233 0-10.3067-.0438-10.4499-.1313-.1254-.0875-.197-1.95718-.2149-5.6062v-1.79096c0-2.43851.0358-3.74527.1074-3.923199z" fill="#416388"/><path d="m87.677.34124c.197-.105007 1.2745-.157511 3.2326-.157511h4.0683c4.6325.017501 6.9761.087506 7.0291.210015.072.087507.108 1.992226.108 5.711246s-.063 5.58871-.188 5.71121c-.108.1225-.594.1838-1.454.1838-.8088 0-1.3193-.0438-1.5342-.1313-.1611-.0875-.2417-.5425-.2417-1.368v-1.26298c-1.5432.0175-3.8475.02625-6.91.02625-3.0624 0-5.3548.00875-6.883.02625l-.9433 1.18428c-.6835.8254-1.1044 1.2717-1.2655 1.3417-.215.105-.7194.1575-1.5074.1575h-.6208c-1.2208-.0175-1.8327-.0962-1.8327-.2362 0-.175 1.4327-2.0885 4.2952-5.73752 2.8654-3.64901 4.4116-5.536231 4.6474-5.65874zm10.9096 6.02919v-3.34275h-8.7814c-.8447 1.053-1.7163 2.16724-2.6118 3.34275z" fill="#416388"/><path d="m104.995.446254c.126-.122509 3.842-.183764 11.152-.183764s10.981.043754 11.07.13126c.09.087506.135.519204.135 1.28926 0 .77006-.045 1.22801-.135 1.31551-.107.10501-3.25.15751-9.426.15751h-9.318v1.71221l9.912.02625c6.609.0175 9.958.08751 10.047.21002.09.14001.135 1.14925.135 3.02772 0 2.33347-.054 3.55277-.162 3.65777-.089.0875-3.978.1312-11.664.1312s-11.573-.0437-11.662-.1312c-.108-.105-.161-.5163-.161-1.2368 0-.77294.062-1.21922.188-1.34173.125-.12251 3.474-.18376 10.047-.18376h9.859v-1.84347h-9.994c-4.901 0-7.796-.00875-8.686-.02625-.889-.0175-1.361-.07876-1.414-.18376-.072-.12251-.108-1.21926-.108-3.29024s.063-3.115227.188-3.237736z" fill="#416388"/><path d="m145.455 1.81724c.737-.912979 1.176-1.429267 1.319-1.551776s.537-.1925136 1.185-.2100148c.648-.0175013 2.728-.0262519 6.25-.0262519h4.054c.871 0 1.567.0116675 2.086.0408362.52.0262519.827.0525035.917.0787555.089.026252.152.067088.188.119592.089.175013.134 2.062229.134 5.658739s-.045 5.48378-.134 5.65878c-.09.1575-.63.2362-1.615.2362-.934 0-1.49-.0437-1.672-.1312-.125-.07-.197-.5251-.215-1.368l-.053-1.2893h-13.549l-.97 1.2105c-.594.7555-.997 1.2193-1.212 1.3943-.179.1225-.907.1837-2.181.1837h-1.078c-.233 0-.418-.0116-.552-.0408-.135-.0292-.215-.0525-.242-.0788-.027-.0262-.039-.067-.039-.1196 0-.175.988-1.508 2.964-4.00191 1.922-2.42101 2.955-3.75402 3.098-4.00195.144-.26252.583-.85173 1.32-1.76471zm12.47 4.34323v-3.23773h-8.915l-1.185 1.52553c-.809 1.01799-1.212 1.55178-1.212 1.60428 0 .07 1.877.10501 5.629.10501h5.683z" fill="#416388"/><path d="m164.418.288828c.107-.105008.674-.157512 1.698-.157512.809 0 1.301.043754 1.48.13126.108.052504.171.277103.189.670882.017.393782.026 1.645122.026 3.751102v4.31698h16.351v-4.29073c0-2.86145.045-4.334476.135-4.421982.107-.105008.674-.157512 1.698-.157512.809 0 1.302.043754 1.481.13126.107.052504.17.312106.188.775894.018.46378.027 1.93389.027 4.41031 0 2.47643-.012 4.00196-.039 4.47449s-.105.82553-.23 1.05303c-.143.2625-.385.4842-.728.6592-.233.1225-.818.1925-1.753.21-.934.0175-3.925.0262-8.969.0262h-10.235l-.51-.2362c-.377-.1925-.612-.385-.702-.5776-.161-.3675-.242-1.80842-.242-4.31694v-1.26301c0-3.36899.045-5.098699.135-5.186205z" fill="#416388"/><path d="m190.517.472506c.054-.105008.594-.166262 1.618-.183764 1.024-.017501 4.373-.026252 10.047-.026252s9.02.008751 10.035.026252c1.015.017502 1.549.078756 1.603.183764.072.175012.107.577544.107 1.210504v.52504c0 .43753-.17.70297-.51.79047-.34.08751-1.319.13126-2.937.13126h-6.546v4.23822c0 2.8265-.045 4.282-.134 4.3695-.09.0875-.63.1312-1.618.1312s-1.552-.0437-1.642-.1312c-.089-.0875-.134-1.543-.134-4.3695v-4.2353h-4.74c-3.161 0-4.82-.06126-4.985-.18377-.125-.0875-.203-.18959-.229-.30335-.027-.11376-.039-.40836-.039-.8809 0-.68546.036-1.114245.107-1.289257z" fill="#416388"/><path d="m217.643.420002c.233-.105008 3.815-.157512 10.749-.157512h2.316c4.149 0 6.609.026252 7.382.078756s1.283.210015 1.534.472534c.036.035003.063.061255.08.078756l.296.315024v9.74234c-.394.3851-.684.6767-.863.8693-2.37.0175-5.916.0262-10.641.0262s-8.268.0088-10.641.0263l-.376-.2363c-.233-.175-.438-.4025-.621-.6855-.125-.2275-.188-1.15797-.188-2.79142v-2.211l.054-4.57949.269-.393781c.215-.280021.43-.463784.647-.554207zm18.883 8.581458v-5.86876h-16.351v5.86876z" fill="#416388"/><g fill="#000"><path d="m8.62182 26.4545v-2.4293c0-.3109-.13361-.4664-.40083-.4664h-6.80607c-.26721 0-.40082.1451-.40082.4353v2.4471c0 .302.13361.453.40082.453h6.81409c.26187 0 .39281-.1466.39281-.4397zm-7.41933 1.5455c-.801662 0-1.20249-.4456-1.20249-1.3368v-2.8779c0-.8882.39682-1.3323 1.19046-1.3323h7.2109c.81502 0 1.22253.4545 1.22253 1.3634v2.8735c0 .8645-.39415 1.2968-1.18244 1.2968z"/><path d="m11.8325 23.5588c-.2806 0-.4196.1436-.4169.4308l.004.6795c.0027.302.139.453.4088.453h5.303v-1.5633zm6.305 2.6692v1.772h-1.0141v-1.772l-5.4833-.0045c-.8124 0-1.2186-.4426-1.2186-1.3279v-1.1191c0-.8853.3982-1.3279 1.1945-1.3279h12.0088c.8204 0 1.2306.4396 1.2306 1.319v1.0925c0 .9149-.4062 1.3723-1.2186 1.3723zm5.315-2.6692h-5.315v1.5633h5.3029c.2592 0 .3902-.151.3929-.453l.004-.6795c.0026-.2872-.1256-.4308-.3848-.4308z"/><path d="m26.6751 27.9867-1.0141.0133v-5.547h1.0101l.008 4.2102 7.5957-4.2235h1.0061v5.5603h-1.0141v-4.2768z"/><path d="m44.7124 22.4486h1.0021v4.4411l.998.0045.0081 1.0969-10.63.0089v-5.5514h1.0021l.008 4.4456 7.6117-.0045z"/><path d="m48.1275 27.9867-1.0141.0133v-5.547h1.0101l.008 4.2102 7.5957-4.2235h1.006v5.5603h-1.014v-4.2768z"/><path d="m67.1748 27.9911h-1.0141v-1.7853h-7.6037v1.7853h-.998v-4.1747c0-.9178.4021-1.3767 1.2064-1.3767h7.1989c.807 0 1.2105.4633 1.2105 1.3901zm-8.6178-2.8956h7.6037v-1.1014c0-.2931-.1336-.4397-.4008-.4397h-6.8021c-.2672 0-.4008.151-.4008.453z"/><path d="m76.9991 27.9956v-4.459h-7.2269c-.2619 0-.3928.1555-.3928.4664v2.6824c0 .8734-.4102 1.3102-1.2306 1.3102h-.3807v-1.1014l.2124.0088c.2565-.0355.3848-.1924.3848-.4707v-2.6292c0-.9089.4008-1.3634 1.2025-1.3634l8.4214.0044v5.5515z"/><path d="m87.0078 26.8808c.2592 0 .3915-.1436.3968-.4308l.0081-.7061c-.0188-.2724-.1604-.413-.4249-.4219l-7.1989.0089v1.5499zm-7.2189-2.6691 7.4273.0089c.7964.0089 1.1945.4619 1.1945 1.359v1.0925c0 .8793-.4102 1.319-1.2305 1.319h-8.3934v-5.5514h1.0021z"/><path d="m98.8323 28h-.9981v-2.2206h-7.6238l-.004 2.2206h-.99v-5.547h.99v2.2206h7.6278v-2.2206h.9981z"/><path d="m107.843 26.8808c.259 0 .391-.1436.397-.4308l.008-.6661c-.019-.302-.143-.453-.373-.453h-7.251v1.5499zm-7.219-2.6691 7.415.0044c.805.0178 1.207.4723 1.207 1.3635v1.0925c0 .8793-.41 1.319-1.231 1.319h-8.3931v-5.5514h1.0021zm9.007 3.7705h1.022v-5.547h-1.022z"/><path d="m112.46 27.9867-1.014.0133v-5.547h1.01l.008 4.2102 7.596-4.2235h1.006v5.5603h-1.014v-4.2768zm2.794-5.9867 2.016.0089v.8882l-2.016.0045z"/><path d="m128.898 26.8897 7.616.0045-.004-2.8868c0-.302-.14-.453-.421-.453h-6.798c-.262 0-.393.1436-.393.4308zm-1.01-3.1354c0-.8675.401-1.3013 1.203-1.3013h7.215c.804 0 1.206.4397 1.206 1.319v3.1177l.998.0045v1.1058l-11.62-.0089v-1.0925l.998-.0044z"/><path d="m139.725 27.9867-1.014.0133v-5.547h1.01l.008 4.2102 7.595-4.2235h1.007v5.5603h-1.015v-4.2768z"/><path d="m158.175 27.9956v-4.459h-7.227c-.262 0-.393.1555-.393.4664v2.6824c0 .8734-.41 1.3102-1.23 1.3102h-.381v-1.1014l.212.0088c.257-.0355.385-.1924.385-.4707v-2.6292c0-.9089.401-1.3634 1.203-1.3634l8.421.0044v5.5515z"/><path d="m169.586 28h-9.619v-5.5603h9.619v1.1147h-8.601v1.1147h8.601v1.1148h-8.601v1.1103h8.601z"/><path d="m178.597 23.5588h-7.207l-.004 1.55h7.223c.243 0 .368-.1465.373-.4397v-.6795c.003-.2872-.126-.4308-.385-.4308zm-7.207 2.6692v1.772h-1.014v-5.5514h8.393c.821 0 1.231.4396 1.231 1.319v1.0925c0 .9149-.406 1.3723-1.219 1.3723z"/></g><path d="m240 27h-52m52-2h-52m52-2h-52" stroke="url(#a)"/></svg>