<svg width="221" height="12" viewBox="0 0 221 12" fill="none" xmlns="http://www.w3.org/2000/svg">
<path d="M8.23466 0.34124C8.41607 0.236233 9.40829 0.183729 11.2113 0.183729H14.9576C19.2234 0.20123 21.381 0.271235 21.4305 0.393744C21.4964 0.481251 21.5294 2.38597 21.5294 6.10499C21.5294 9.82401 21.4717 11.6937 21.3562 11.8162C21.2573 11.9387 20.8093 12 20.0177 12C19.2728 12 18.8028 11.9562 18.6049 11.8687C18.4565 11.7812 18.3823 11.3262 18.3823 10.5007V9.23772C16.9613 9.25522 14.8394 9.26397 12.0194 9.26397C9.1994 9.26397 7.08851 9.27272 5.68126 9.29022L4.81271 10.4745C4.1833 11.2999 3.79575 11.7462 3.64733 11.8162C3.44943 11.9212 2.98493 11.9737 2.25931 11.9737H1.68761C0.563453 11.9562 0 11.8775 0 11.7375C0 11.5625 1.3193 9.649 3.95517 5.99998C6.59378 2.35097 8.02027 0.463749 8.23466 0.34124ZM18.2806 6.37043V3.02768H10.1944C9.41654 4.08068 8.61396 5.19492 7.7894 6.37043H18.2806Z" fill="#416388"/>
<path d="M24.234 0.131259C24.3659 0.0437532 27.939 0 34.9478 0C41.9566 0 45.4803 0.0437532 45.5627 0.131259C45.6452 0.218766 45.6864 0.650464 45.6864 1.42052C45.6864 2.19058 45.6452 2.64852 45.5627 2.73603C45.4638 2.84104 43.9328 2.89354 40.9754 2.89354H36.5365V7.13177C36.5365 9.97572 36.4788 11.4575 36.3633 11.58C36.2644 11.7025 35.7669 11.7638 34.8764 11.7638C33.9858 11.7638 33.4966 11.72 33.4141 11.6325C33.3317 11.545 33.2904 10.0632 33.2904 7.18427V2.89646H28.8021C25.8089 2.89646 24.2642 2.84396 24.1625 2.73895C24.0801 2.65144 24.0388 2.21391 24.0388 1.42344C24.0388 0.632962 24.1048 0.221683 24.2367 0.134176L24.234 0.131259Z" fill="#416388"/>
<path d="M48.2673 0.498758C48.3167 0.39375 48.4212 0.326662 48.5778 0.30041C48.7345 0.274158 49.144 0.26249 49.8064 0.26249C50.7822 0.26249 51.3099 0.306244 51.3951 0.39375C51.4776 0.481256 51.5188 1.94553 51.5188 4.78948V9.02771H60.5973C66.6166 9.02771 69.6757 9.08021 69.7747 9.18522C69.8571 9.27273 69.8984 9.70442 69.8984 10.4745C69.8984 11.2445 69.8571 11.7025 69.7747 11.79C69.6757 11.895 65.748 11.9475 57.9916 11.9475C51.7084 11.9475 48.5009 11.9037 48.3689 11.8162C48.2535 11.7287 48.1875 9.85902 48.1711 6.21V4.41904C48.1711 1.98053 48.204 0.67377 48.27 0.495841L48.2673 0.498758Z" fill="#416388"/>
<path d="M80.7359 0.34124C80.9173 0.236233 81.9095 0.183729 83.7126 0.183729H87.4589C91.7246 0.20123 93.8822 0.271235 93.9317 0.393744C93.9977 0.481251 94.0306 2.38597 94.0306 6.10499C94.0306 9.82401 93.9729 11.6937 93.8575 11.8162C93.7585 11.9387 93.3105 12 92.5189 12C91.7741 12 91.3041 11.9562 91.1062 11.8687C90.9578 11.7812 90.8836 11.3262 90.8836 10.5007V9.23772C89.4625 9.25522 87.3407 9.26397 84.5207 9.26397C81.7006 9.26397 79.5898 9.27272 78.1825 9.29022L77.314 10.4745C76.6845 11.2999 76.297 11.7462 76.1486 11.8162C75.9507 11.9212 75.4862 11.9737 74.7605 11.9737H74.1889C73.0647 11.9562 72.5012 11.8775 72.5012 11.7375C72.5012 11.5625 73.8205 9.649 76.4564 5.99998C79.095 2.35097 80.5188 0.463749 80.7359 0.34124ZM90.7819 6.37043V3.02768H82.6956C81.9178 4.08068 81.1152 5.19492 80.2906 6.37043H90.7819Z" fill="#416388"/>
<path d="M96.6831 0.446254C96.7985 0.323745 100.22 0.26249 106.952 0.26249C113.683 0.26249 117.064 0.306244 117.146 0.39375C117.229 0.481256 117.27 0.912954 117.27 1.68301C117.27 2.45307 117.229 2.91102 117.146 2.99852C117.047 3.10353 114.153 3.15603 108.466 3.15603H99.8851V4.86824L109.013 4.89449C115.098 4.91199 118.182 4.982 118.265 5.10451C118.347 5.24452 118.388 6.25376 118.388 8.13223C118.388 10.4657 118.339 11.685 118.24 11.79C118.158 11.8775 114.576 11.9212 107.499 11.9212C100.421 11.9212 96.8425 11.8775 96.76 11.79C96.6611 11.685 96.6116 11.2737 96.6116 10.5532C96.6116 9.78026 96.6693 9.33398 96.7848 9.21147C96.9002 9.08896 99.9841 9.02771 106.036 9.02771H115.115V7.18424H105.913C101.4 7.18424 98.7335 7.17549 97.9144 7.15799C97.0954 7.14049 96.6611 7.07923 96.6116 6.97423C96.5457 6.85172 96.5127 5.75497 96.5127 3.68399C96.5127 1.613 96.5704 0.568763 96.6858 0.446254H96.6831Z" fill="#416388"/>
<path d="M133.94 1.81724C134.619 0.904261 135.023 0.387973 135.154 0.265464C135.286 0.142955 135.649 0.0729504 136.246 0.0554492C136.842 0.0379479 138.758 0.0291973 142.001 0.0291973H145.734C146.536 0.0291973 147.177 0.0408648 147.655 0.0700335C148.133 0.0962854 148.416 0.122537 148.499 0.148789C148.581 0.175041 148.639 0.215877 148.672 0.268381C148.754 0.443394 148.796 2.33061 148.796 5.92712C148.796 9.52363 148.754 11.4109 148.672 11.5859C148.589 11.7434 148.092 11.8221 147.185 11.8221C146.325 11.8221 145.813 11.7784 145.646 11.6909C145.53 11.6209 145.464 11.1658 145.448 10.3229L145.398 9.0336H132.923L132.029 10.2441C131.482 10.9996 131.111 11.4634 130.913 11.6384C130.749 11.7609 130.078 11.8221 128.904 11.8221H127.912C127.698 11.8221 127.527 11.8105 127.404 11.7813C127.28 11.7521 127.206 11.7288 127.181 11.7025C127.156 11.6763 127.145 11.6355 127.145 11.5829C127.145 11.4079 128.055 10.0749 129.875 7.58099C131.645 5.15998 132.596 3.82697 132.728 3.57904C132.859 3.31652 133.263 2.72731 133.942 1.81433L133.94 1.81724ZM145.423 6.16047V2.92274H137.213L136.122 4.44827C135.377 5.46626 135.006 6.00005 135.006 6.05255C135.006 6.12255 136.735 6.15756 140.19 6.15756H145.423V6.16047Z" fill="#416388"/>
<path d="M151.401 0.288828C151.5 0.18382 152.022 0.131316 152.965 0.131316C153.71 0.131316 154.164 0.17507 154.328 0.262576C154.427 0.31508 154.485 0.539679 154.502 0.933458C154.518 1.32724 154.526 2.57858 154.526 4.68456V9.00154H169.583V4.71081C169.583 1.84936 169.624 0.376334 169.707 0.288828C169.806 0.18382 170.328 0.131316 171.271 0.131316C172.015 0.131316 172.469 0.17507 172.634 0.262576C172.733 0.31508 172.79 0.574682 172.807 1.03847C172.823 1.50225 172.832 2.97236 172.832 5.44878C172.832 7.92521 172.821 9.45074 172.796 9.92327C172.771 10.3958 172.7 10.7488 172.584 10.9763C172.452 11.2388 172.23 11.4605 171.914 11.6355C171.699 11.758 171.161 11.828 170.3 11.8455C169.44 11.863 166.686 11.8717 162.041 11.8717H152.616L152.146 11.6355C151.8 11.443 151.583 11.2505 151.5 11.0579C151.352 10.6904 151.278 9.24948 151.278 6.74096V5.47795C151.278 2.10896 151.319 0.379251 151.401 0.291745V0.288828Z" fill="#416388"/>
<path d="M175.435 0.472506C175.484 0.367498 175.982 0.306244 176.924 0.288742C177.867 0.271241 180.951 0.26249 186.176 0.26249C191.401 0.26249 194.482 0.271241 195.417 0.288742C196.351 0.306244 196.843 0.367498 196.893 0.472506C196.959 0.647518 196.992 1.05005 196.992 1.68301V2.20805C196.992 2.64558 196.835 2.91102 196.521 2.99852C196.208 3.08603 195.307 3.12978 193.817 3.12978H187.789V7.368C187.789 10.1945 187.748 11.65 187.666 11.7375C187.583 11.825 187.086 11.8687 186.176 11.8687C185.266 11.8687 184.747 11.825 184.664 11.7375C184.582 11.65 184.541 10.1945 184.541 7.368V3.1327H180.176C177.265 3.1327 175.737 3.07144 175.586 2.94893C175.47 2.86143 175.399 2.75934 175.374 2.64558C175.349 2.53182 175.338 2.23722 175.338 1.76468C175.338 1.07922 175.371 0.650435 175.437 0.475423L175.435 0.472506Z" fill="#416388"/>
<path d="M200.413 0.420002C200.628 0.314994 203.926 0.26249 210.311 0.26249H212.444C216.264 0.26249 218.529 0.288742 219.241 0.341246C219.953 0.39375 220.423 0.551261 220.654 0.81378C220.687 0.848783 220.711 0.875035 220.728 0.892536L221 1.20756V10.9499C220.637 11.335 220.371 11.6266 220.206 11.8192C218.023 11.8367 214.758 11.8454 210.407 11.8454C206.056 11.8454 202.794 11.8542 200.609 11.8717L200.262 11.6354C200.048 11.4604 199.858 11.2329 199.691 10.9499C199.575 10.7224 199.517 9.79193 199.517 8.15848V5.94748L199.567 1.36799L199.814 0.974209C200.012 0.694188 200.21 0.510425 200.411 0.420002H200.413ZM217.801 9.00146V3.1327H202.744V9.00146H217.801Z" fill="#416388"/>
</svg>
