<svg width="256" height="28" viewBox="0 0 256 28" fill="none" xmlns="http://www.w3.org/2000/svg">
<path d="M16.9426 8.34124C17.1396 8.23623 18.2171 8.18373 20.1752 8.18373H24.2436C28.8761 8.20123 31.2192 8.27124 31.2729 8.39374C31.3445 8.48125 31.3803 10.386 31.3803 14.105C31.3803 17.824 31.3177 19.6937 31.1923 19.8162C31.0848 19.9387 30.5983 20 29.7387 20C28.9298 20 28.4194 19.9562 28.2045 19.8687C28.0433 19.7812 27.9627 19.3262 27.9627 18.5007V17.2377C26.4195 17.2552 24.1152 17.264 21.0528 17.264C17.9903 17.264 15.6979 17.2727 14.1697 17.2902L13.2265 18.4745C12.5429 19.2999 12.1221 19.7462 11.9609 19.8162C11.746 19.9212 11.2415 19.9737 10.4535 19.9737H9.8327C8.61189 19.9562 8 19.8775 8 19.7375C8 19.5625 9.43273 17.649 12.2952 14C15.1607 10.351 16.7098 8.46375 16.9426 8.34124ZM27.8523 14.3704V11.0277H19.0708C18.2261 12.0807 17.3545 13.1949 16.4591 14.3704H27.8523Z" fill="white"/>
<path d="M34.3174 8.13126C34.4607 8.04375 38.341 8 45.9524 8C53.5638 8 57.3903 8.04375 57.4799 8.13126C57.5694 8.21877 57.6142 8.65046 57.6142 9.42052C57.6142 10.1906 57.5694 10.6485 57.4799 10.736C57.3724 10.841 55.7099 10.8935 52.4982 10.8935H47.6776V15.1318C47.6776 17.9757 47.6149 19.4575 47.4896 19.58C47.3821 19.7025 46.8419 19.7638 45.8748 19.7638C44.9077 19.7638 44.3764 19.72 44.2868 19.6325C44.1973 19.545 44.1525 18.0632 44.1525 15.1843V10.8965H39.2783C36.0278 10.8965 34.3503 10.844 34.2398 10.7389C34.1503 10.6514 34.1055 10.2139 34.1055 9.42344C34.1055 8.63296 34.1771 8.22168 34.3204 8.13418L34.3174 8.13126Z" fill="white"/>
<path d="M60.4169 8.49876C60.4706 8.39375 60.5841 8.32666 60.7542 8.30041C60.9243 8.27416 61.3691 8.26249 62.0884 8.26249C63.1481 8.26249 63.7212 8.30624 63.8137 8.39375C63.9032 8.48126 63.948 9.94553 63.948 12.7895V17.0277H73.807C80.3438 17.0277 83.6659 17.0802 83.7734 17.1852C83.8629 17.2727 83.9077 17.7044 83.9077 18.4745C83.9077 19.2445 83.8629 19.7025 83.7734 19.79C83.6659 19.895 79.4006 19.9475 70.9773 19.9475C64.154 19.9475 60.6706 19.9037 60.5274 19.8162C60.402 19.7287 60.3304 17.859 60.3124 14.21V12.419C60.3124 9.98053 60.3483 8.67377 60.4199 8.49584L60.4169 8.49876Z" fill="white"/>
<path d="M95.677 8.34124C95.874 8.23623 96.9515 8.18373 98.9096 8.18373H102.978C107.61 8.20123 109.954 8.27124 110.007 8.39374C110.079 8.48125 110.115 10.386 110.115 14.105C110.115 17.824 110.052 19.6937 109.927 19.8162C109.819 19.9387 109.333 20 108.473 20C107.664 20 107.154 19.9562 106.939 19.8687C106.778 19.7812 106.697 19.3262 106.697 18.5007V17.2377C105.154 17.2552 102.85 17.264 99.7871 17.264C96.7247 17.264 94.4323 17.2727 92.9041 17.2902L91.9608 18.4745C91.2773 19.2999 90.8564 19.7462 90.6953 19.8162C90.4804 19.9212 89.9759 19.9737 89.1879 19.9737H88.5671C87.3463 19.9562 86.7344 19.8775 86.7344 19.7375C86.7344 19.5625 88.1671 17.649 91.0296 14C93.895 10.351 95.4412 8.46375 95.677 8.34124ZM106.587 14.3704V11.0277H97.8052C96.9605 12.0807 96.0889 13.1949 95.1934 14.3704H106.587Z" fill="white"/>
<path d="M112.995 8.44625C113.121 8.32374 116.837 8.26249 124.147 8.26249C131.457 8.26249 135.128 8.30624 135.217 8.39375C135.307 8.48126 135.352 8.91295 135.352 9.68301C135.352 10.4531 135.307 10.911 135.217 10.9985C135.11 11.1035 131.967 11.156 125.791 11.156H116.473V12.8682L126.385 12.8945C132.994 12.912 136.343 12.982 136.432 13.1045C136.522 13.2445 136.567 14.2538 136.567 16.1322C136.567 18.4657 136.513 19.685 136.405 19.79C136.316 19.8775 132.427 19.9212 124.741 19.9212C117.055 19.9212 113.168 19.8775 113.079 19.79C112.971 19.685 112.918 19.2737 112.918 18.5532C112.918 17.7803 112.98 17.334 113.106 17.2115C113.231 17.089 116.58 17.0277 123.153 17.0277H133.012V15.1842H123.018C118.117 15.1842 115.222 15.1755 114.332 15.158C113.443 15.1405 112.971 15.0792 112.918 14.9742C112.846 14.8517 112.81 13.755 112.81 11.684C112.81 9.613 112.873 8.56876 112.998 8.44625H112.995Z" fill="white"/>
<path d="M153.455 9.81724C154.192 8.90426 154.631 8.38797 154.774 8.26546C154.917 8.14296 155.311 8.07295 155.959 8.05545C156.607 8.03795 158.687 8.0292 162.209 8.0292H166.263C167.134 8.0292 167.83 8.04086 168.349 8.07003C168.869 8.09629 169.176 8.12254 169.266 8.14879C169.355 8.17504 169.418 8.21588 169.454 8.26838C169.543 8.44339 169.588 10.3306 169.588 13.9271C169.588 17.5236 169.543 19.4109 169.454 19.5859C169.364 19.7434 168.824 19.8221 167.839 19.8221C166.905 19.8221 166.349 19.7784 166.167 19.6909C166.042 19.6209 165.97 19.1658 165.952 18.3229L165.899 17.0336H152.35L151.38 18.2441C150.786 18.9996 150.383 19.4634 150.168 19.6384C149.989 19.7609 149.261 19.8221 147.987 19.8221H146.909C146.676 19.8221 146.491 19.8105 146.357 19.7813C146.222 19.7521 146.142 19.7288 146.115 19.7025C146.088 19.6763 146.076 19.6355 146.076 19.5829C146.076 19.4079 147.064 18.0749 149.04 15.581C150.962 13.16 151.995 11.827 152.138 11.579C152.282 11.3165 152.721 10.7273 153.458 9.81433L153.455 9.81724ZM165.925 14.1605V10.9227H157.01L155.825 12.4483C155.016 13.4663 154.613 14 154.613 14.0525C154.613 14.1226 156.49 14.1576 160.242 14.1576H165.925V14.1605Z" fill="white"/>
<path d="M172.418 8.28883C172.525 8.18382 173.092 8.13132 174.116 8.13132C174.925 8.13132 175.417 8.17507 175.596 8.26258C175.704 8.31508 175.767 8.53968 175.785 8.93346C175.802 9.32724 175.811 10.5786 175.811 12.6846V17.0015H192.162V12.7108C192.162 9.84936 192.207 8.37633 192.297 8.28883C192.404 8.18382 192.971 8.13132 193.995 8.13132C194.804 8.13132 195.297 8.17507 195.476 8.26258C195.583 8.31508 195.646 8.57468 195.664 9.03847C195.682 9.50225 195.691 10.9724 195.691 13.4488C195.691 15.9252 195.679 17.4507 195.652 17.9233C195.625 18.3958 195.547 18.7488 195.422 18.9763C195.279 19.2388 195.037 19.4605 194.694 19.6355C194.461 19.758 193.876 19.828 192.941 19.8455C192.007 19.863 189.016 19.8717 183.972 19.8717H173.737L173.227 19.6355C172.85 19.443 172.615 19.2505 172.525 19.0579C172.364 18.6904 172.283 17.2495 172.283 14.741V13.478C172.283 10.109 172.328 8.37925 172.418 8.29174V8.28883Z" fill="white"/>
<path d="M198.517 8.47251C198.571 8.3675 199.111 8.30624 200.135 8.28874C201.159 8.27124 204.508 8.26249 210.182 8.26249C215.856 8.26249 219.202 8.27124 220.217 8.28874C221.232 8.30624 221.766 8.3675 221.82 8.47251C221.892 8.64752 221.927 9.05005 221.927 9.68301V10.208C221.927 10.6456 221.757 10.911 221.417 10.9985C221.077 11.086 220.098 11.1298 218.48 11.1298H211.934V15.368C211.934 18.1945 211.889 19.65 211.8 19.7375C211.71 19.825 211.17 19.8687 210.182 19.8687C209.194 19.8687 208.63 19.825 208.54 19.7375C208.451 19.65 208.406 18.1945 208.406 15.368V11.1327H203.666C200.505 11.1327 198.846 11.0714 198.681 10.9489C198.556 10.8614 198.478 10.7593 198.452 10.6456C198.425 10.5318 198.413 10.2372 198.413 9.76468C198.413 9.07922 198.449 8.65044 198.52 8.47542L198.517 8.47251Z" fill="white"/>
<path d="M225.643 8.42C225.876 8.31499 229.458 8.26249 236.392 8.26249H238.708C242.857 8.26249 245.317 8.28874 246.09 8.34125C246.863 8.39375 247.373 8.55126 247.624 8.81378C247.66 8.84878 247.687 8.87503 247.704 8.89254L248 9.20756V18.9499C247.606 19.335 247.316 19.6266 247.137 19.8192C244.767 19.8367 241.221 19.8454 236.496 19.8454C231.771 19.8454 228.228 19.8542 225.855 19.8717L225.479 19.6354C225.246 19.4604 225.041 19.2329 224.858 18.9499C224.733 18.7224 224.67 17.7919 224.67 16.1585V13.9475L224.724 9.36799L224.993 8.97421C225.208 8.69419 225.423 8.51043 225.64 8.42H225.643ZM244.526 17.0015V11.1327H228.175V17.0015H244.526Z" fill="white"/>
</svg>
