<svg width="24" height="24" viewBox="0 0 24 24" fill="none" xmlns="http://www.w3.org/2000/svg">
<path fill-rule="evenodd" clip-rule="evenodd" d="M24 12C24 5.37324 18.6268 0 12 0C5.37324 0 0 5.37324 0 12C0 18.6268 5.37324 24 12 24C18.6268 24 24 18.6268 24 12ZM1.1 12C1.1 5.98076 5.98076 1.1 12 1.1C18.0192 1.1 22.9 5.98076 22.9 12C22.9 18.0192 18.0192 22.9 12 22.9C5.98076 22.9 1.1 18.0192 1.1 12Z" fill="white"/>
<path d="M17.8006 14.6792L16.7694 13.648C16.462 13.343 16.047 13.1711 15.614 13.1693C15.1811 13.1674 14.7647 13.3358 14.4547 13.6381C14.2893 13.8045 14.0711 13.908 13.8376 13.9308C13.6041 13.9537 13.37 13.8944 13.1755 13.7633C12.4078 13.2509 11.7482 12.5927 11.2344 11.8259C11.1055 11.6293 11.0484 11.3942 11.0727 11.1603C11.0969 10.9265 11.2011 10.7081 11.3675 10.542C11.6671 10.2318 11.8333 9.81653 11.8306 9.38524C11.8279 8.95395 11.6564 8.54086 11.353 8.23438L10.3217 7.20312C10.013 6.89544 9.59486 6.72267 9.15898 6.72267C8.7231 6.72267 8.30499 6.89544 7.99625 7.20312L7.69953 7.50031C6.15266 9.04719 6.26844 12.2994 9.48687 15.5159C11.4275 17.457 13.3808 18.2698 14.9647 18.2698C15.4309 18.2854 15.8956 18.2079 16.3316 18.0421C16.7677 17.8762 17.1663 17.6252 17.5044 17.3037L17.8016 17.0066C18.1098 16.6977 18.2828 16.2791 18.2827 15.8427C18.2825 15.4063 18.1091 14.9879 17.8006 14.6792ZM17.1378 16.3438L16.8406 16.6409C15.6219 17.8597 12.9317 17.637 10.1488 14.8536C7.36578 12.0702 7.14266 9.37813 8.36141 8.15938L8.65625 7.86266C8.789 7.73038 8.96877 7.65611 9.15617 7.65611C9.34357 7.65611 9.52334 7.73038 9.65609 7.86266L10.6873 8.89391C10.8177 9.0249 10.8917 9.20165 10.8935 9.38643C10.8953 9.57122 10.8249 9.74941 10.6972 9.88297C10.3804 10.2017 10.1829 10.6197 10.1375 11.0668C10.0922 11.5138 10.2019 11.9629 10.4483 12.3387C11.0321 13.2125 11.7829 13.9621 12.6575 14.5447C13.0322 14.7911 13.4801 14.9014 13.9264 14.8573C14.3727 14.8132 14.7903 14.6173 15.1095 14.3023C15.2428 14.1731 15.4215 14.1014 15.6072 14.1025C15.7928 14.1036 15.9706 14.1776 16.1023 14.3084L17.1336 15.3397C17.2001 15.4052 17.2529 15.4832 17.2891 15.5692C17.3253 15.6552 17.3442 15.7475 17.3446 15.8408C17.3449 15.9342 17.3269 16.0266 17.2914 16.1129C17.2559 16.1992 17.2037 16.2777 17.1378 16.3438Z" fill="white"/>
</svg>
